<svg width="120" height="120" viewBox="0 0 120 120" fill="none" xmlns="http://www.w3.org/2000/svg">
<rect width="120" height="120" fill="white"/>
<path fill-rule="evenodd" clip-rule="evenodd" d="M65.4284 9.43225C58.5982 13.4141 51.8371 19.7924 48.2668 25.6223C47.7917 26.3979 47.1908 27.1168 46.9313 27.22C46.6719 27.3232 45.5975 27.7175 44.5439 28.096C41.3904 29.2292 36.9723 31.6616 33.9642 33.9207C16.8437 46.7772 11.3947 69.509 20.8756 88.5236C25.2378 97.2727 32.5721 104.444 41.4063 108.599C43.9965 109.818 47.2854 110.995 49.4698 111.486C49.9214 111.587 49.1825 111.12 47.8278 110.448C44.8755 108.983 42.9591 107.323 40.062 103.721C35.3254 97.832 32.4985 91.8363 31.0899 84.6923C30.3507 80.9428 30.4202 73.8964 31.2369 69.7775C32.4892 63.4635 35.4379 56.3057 39.3461 50.0952C41.244 47.0791 43.866 43.4207 44.0198 43.5745C44.0701 43.6246 43.8668 44.4516 43.568 45.4119C42.7612 48.0041 42.4555 51.6586 42.7919 54.6919C43.626 62.2133 47.1388 68.8834 53.9435 75.8676C55.5206 77.4864 56.8533 78.7682 56.9051 78.7165C56.9571 78.6648 56.0605 76.6629 54.9131 74.2683C51.1449 66.4043 49.0366 60.0114 48.2312 54.0075C47.7419 50.3592 48.0243 42.1873 48.7528 38.9162C50.3237 31.863 53.8444 24.4458 58.59 18.1915C59.2753 17.2884 60.9493 15.3796 62.3102 13.9497C63.6712 12.5198 65.3986 10.7034 66.1489 9.91309C66.8991 9.12274 67.3941 8.48729 67.2488 8.5007C67.1035 8.51438 66.2841 8.93336 65.4284 9.43225ZM67.9423 26.691C67.9423 27.9556 69.0701 32.9122 70.0555 35.9797C72.4556 43.4489 76.6071 51.1915 81.3544 57.052C86.4954 63.3989 88.7269 67.2866 90.0337 72.1745C90.6481 74.473 90.7496 75.4246 90.7698 79.0821C90.7956 83.7262 90.4661 85.7136 88.9554 90.0287C88.0214 92.6962 86.0242 96.8022 84.4963 99.1965C81.6866 103.6 77.7165 108.177 75.661 109.383C74.0122 110.351 74.4038 110.447 76.4648 109.58C90.3815 103.728 100.156 91.8264 102.954 77.3287C107.353 54.5354 93.1058 32.2483 70.4964 26.5539C69.2674 26.2444 68.1897 25.9909 68.1018 25.9909C68.0142 25.9909 67.9423 26.3059 67.9423 26.691Z" fill="#FF5C00"/>
</svg>
