<svg width="192" height="193" viewBox="0 0 192 193" fill="none" xmlns="http://www.w3.org/2000/svg">
<rect y="0.09375" width="192" height="192" fill="white"/>
<path fill-rule="evenodd" clip-rule="evenodd" d="M104.685 15.1852C93.7572 21.5561 82.9393 31.7614 77.2269 41.0893C76.4668 42.3302 75.5052 43.4804 75.0901 43.6455C74.675 43.8106 72.956 44.4416 71.2702 45.0471C66.2247 46.8603 59.1558 50.7521 54.3427 54.3667C26.9499 74.9371 18.2316 111.308 33.401 141.731C40.3805 155.73 52.1153 167.204 66.2501 173.853C70.3944 175.802 75.6567 177.685 79.1517 178.471C79.8742 178.633 78.692 177.886 76.5246 176.81C71.8009 174.466 68.7345 171.81 64.0993 166.046C56.5207 156.625 51.9975 147.032 49.7438 135.601C48.5612 129.602 48.6724 118.328 49.979 111.738C51.9826 101.635 56.7006 90.1827 62.9538 80.2458C65.9904 75.4201 70.1856 69.5667 70.4317 69.8128C70.5122 69.8929 70.1869 71.2161 69.7087 72.7526C68.4179 76.9001 67.9288 82.7473 68.467 87.6006C69.8016 99.6349 75.422 110.307 86.3095 121.482C88.8329 124.072 90.9654 126.123 91.0481 126.04C91.1313 125.957 89.6969 122.754 87.8609 118.923C81.8319 106.34 78.4586 96.1119 77.17 86.5055C76.3871 80.6683 76.8389 67.5932 78.0045 62.3594C80.5179 51.0743 86.151 39.2069 93.744 29.1999C94.8405 27.755 97.5189 24.7008 99.6964 22.413C101.874 20.1252 104.638 17.219 105.838 15.9545C107.039 14.6899 107.831 13.6732 107.598 13.6947C107.366 13.7166 106.055 14.3869 104.685 15.1852ZM108.708 42.7991C108.708 44.8225 110.512 52.7531 112.089 57.6612C115.929 69.6118 122.571 81.9999 130.167 91.3768C138.393 101.532 141.963 107.752 144.054 115.573C145.037 119.25 145.199 120.773 145.232 126.625C145.273 134.056 144.746 137.235 142.329 144.14C140.834 148.407 137.639 154.977 135.194 158.808C130.699 165.853 124.346 173.176 121.058 175.106C118.419 176.655 119.046 176.808 122.344 175.422C144.61 166.058 160.25 147.016 164.726 123.82C171.764 87.3502 148.969 51.6909 112.794 42.5798C110.828 42.0845 109.103 41.6791 108.963 41.6791C108.823 41.6791 108.708 42.1831 108.708 42.7991Z" fill="#FF5C00"/>
</svg>
