<svg width="512" height="513" viewBox="0 0 512 513" fill="none" xmlns="http://www.w3.org/2000/svg">
<rect y="0.09375" width="512" height="512" fill="white"/>
<path fill-rule="evenodd" clip-rule="evenodd" d="M279.161 40.3374C250.019 57.3265 221.172 84.5407 205.939 109.415C203.912 112.724 201.347 115.791 200.24 116.232C199.134 116.672 194.549 118.354 190.054 119.969C176.599 124.804 157.749 135.182 144.914 144.821C71.8665 199.676 48.6176 296.665 89.0694 377.794C107.682 415.123 138.974 445.721 176.667 463.451C187.719 468.648 201.751 473.671 211.071 475.767C212.998 476.199 209.845 474.207 204.066 471.338C191.469 465.085 183.292 458.002 170.932 442.634C150.722 417.51 138.66 391.928 132.65 361.447C129.497 345.449 129.793 315.384 133.277 297.81C138.621 270.87 151.202 240.331 167.877 213.832C175.975 200.964 187.162 185.355 187.818 186.011C188.033 186.225 187.165 189.753 185.89 193.851C182.448 204.91 181.144 220.503 182.579 233.445C186.138 265.537 201.126 293.996 230.159 323.795C236.888 330.702 242.574 336.171 242.795 335.95C243.017 335.729 239.192 327.188 234.296 316.971C218.219 283.418 209.223 256.142 205.787 230.525C203.699 214.959 204.904 180.092 208.012 166.135C214.715 136.042 229.736 104.395 249.984 77.71C252.908 73.8568 260.05 65.7125 265.857 59.6116C271.664 53.5107 279.034 45.761 282.236 42.3889C285.436 39.0168 287.548 36.3055 286.928 36.3627C286.308 36.4211 282.812 38.2087 279.161 40.3374ZM289.887 113.975C289.887 119.37 294.699 140.519 298.904 153.607C309.144 185.475 326.857 218.51 347.112 243.515C369.047 270.595 378.568 287.182 384.144 308.038C386.765 317.845 387.198 321.905 387.285 337.51C387.395 357.325 385.989 365.804 379.543 384.216C375.558 395.597 367.037 413.116 360.518 423.332C348.53 442.118 331.591 461.647 322.821 466.794C315.785 470.922 317.456 471.332 326.25 467.635C385.628 442.664 427.334 391.886 439.27 330.029C458.038 232.777 397.252 137.686 300.785 113.39C295.541 112.069 290.943 110.988 290.568 110.988C290.194 110.988 289.887 112.332 289.887 113.975Z" fill="#FF5C00"/>
</svg>
