<svg width="180" height="180" viewBox="0 0 180 180" fill="none" xmlns="http://www.w3.org/2000/svg">
<rect width="180" height="180" fill="white"/>
<path fill-rule="evenodd" clip-rule="evenodd" d="M98.1426 14.1481C87.8974 20.1209 77.7556 29.6884 72.4002 38.4332C71.6876 39.5966 70.7861 40.675 70.397 40.8297C70.0078 40.9845 68.3962 41.576 66.8158 42.1437C62.0856 43.8436 55.4585 47.4921 50.9463 50.8808C25.2655 70.1656 17.0921 104.263 31.3134 132.785C37.8567 145.909 48.8581 156.666 62.1094 162.899C65.9948 164.726 70.9282 166.492 74.2048 167.229C74.8821 167.381 73.7737 166.68 71.7418 165.672C67.3133 163.474 64.4386 160.984 60.0931 155.581C52.9881 146.748 48.7477 137.754 46.6349 127.038C45.5261 121.414 45.6304 110.844 46.8553 104.666C48.7337 95.1949 53.1569 84.4583 59.0192 75.1425C61.866 70.6184 65.799 65.1308 66.0297 65.3615C66.1052 65.4367 65.8002 66.6772 65.352 68.1176C64.1418 72.0059 63.6833 77.4877 64.1878 82.0376C65.439 93.3198 70.7081 103.325 80.9152 113.801C83.2809 116.229 85.28 118.152 85.3576 118.074C85.4356 117.997 84.0908 114.994 82.3696 111.402C76.7174 99.6062 73.5549 90.0169 72.3468 81.011C71.6129 75.5386 72.0365 63.2807 73.1293 58.374C75.4855 47.7942 80.7666 36.6685 87.885 27.287C88.9129 25.9323 91.4239 23.0691 93.4654 20.9242C95.5068 18.7794 98.0978 16.0549 99.2234 14.8694C100.349 13.6839 101.091 12.7307 100.873 12.7508C100.655 12.7713 99.4262 13.3998 98.1426 14.1481ZM101.913 40.0362C101.913 41.9331 103.605 49.3681 105.083 53.9694C108.683 65.1731 114.911 76.7869 122.032 85.5778C129.743 95.0981 133.09 100.93 135.051 108.262C135.972 111.709 136.124 113.137 136.155 118.623C136.193 125.589 135.699 128.57 133.433 135.043C132.032 139.044 129.036 145.203 126.744 148.795C122.53 155.399 116.575 162.265 113.492 164.074C111.018 165.526 111.606 165.67 114.697 164.37C135.572 155.591 150.234 137.739 154.431 115.993C161.029 81.8028 139.659 48.3722 105.745 39.8306C103.901 39.3663 102.285 38.9862 102.153 38.9862C102.021 38.9862 101.913 39.4587 101.913 40.0362Z" fill="#FF5C00"/>
</svg>
