<svg width="350" height="101" viewBox="0 0 350 101" fill="none" xmlns="http://www.w3.org/2000/svg">
<path d="M0.691895 98.7333V95.7888C12.0808 95.7888 13.6919 93.5666 13.6919 86.1222V13.2888C13.6919 5.78884 12.0808 3.62218 0.691895 3.62218V0.677734H39.0252C56.9141 0.677734 68.803 8.51107 68.803 24.9555C68.803 38.5666 59.8585 46.5111 47.9697 48.0111V48.6222C63.303 49.6222 73.3585 59.1777 73.3585 72.3999C73.3585 91.7888 57.4141 98.7333 37.803 98.7333H0.691895ZM27.303 45.5666C30.3585 46.0666 33.5252 46.0666 36.4697 46.0666C46.5252 46.0666 55.3585 39.6777 55.3585 25.4555C55.3585 11.2333 46.4141 5.73329 36.7474 5.73329C34.4141 5.73329 31.8585 5.8444 29.7474 6.3444C28.0252 6.73329 27.303 7.78884 27.303 9.51107V45.5666ZM27.303 89.8999C27.303 92.8444 30.4697 93.6777 36.2474 93.6777C47.7474 93.6777 59.6363 89.3999 59.6363 72.4555C59.6363 55.5111 46.0252 51.0111 36.5808 51.0111C33.4141 51.0111 30.3586 51.0111 27.2474 51.5111V89.8444L27.303 89.8999Z" fill="#141213"/>
<path d="M117.192 98.5666L116.97 88.1777L116.581 88.0666C112.414 94.6777 106.525 100.678 97.803 100.678C89.0808 100.678 84.4697 93.7888 84.4697 83.011V48.4555C84.4697 40.511 84.0808 39.011 76.6363 41.3444L75.803 38.6221L94.6919 32.511L96.4141 34.1221V81.7888C96.4141 89.011 98.6363 92.4555 103.303 92.4555C108.192 92.4555 113.081 88.2888 117.025 83.011V48.4555C117.025 40.511 116.803 39.011 109.192 41.3444L108.359 38.6221L127.359 32.511L128.97 34.1221V84.1221C128.97 92.3444 129.192 93.8999 136.803 91.1221L137.914 93.9555L119.803 100.678L117.359 98.5666H117.192Z" fill="#141213"/>
<path d="M185.581 38.0666C185.581 42.8444 182.747 45.8999 179.581 45.8999C177.359 45.8999 176.414 45.0666 174.803 43.3444C173.192 41.7332 172.581 41.2888 171.136 41.2888C168.303 41.2888 165.025 45.3444 162.414 52.7888V85.3999C162.414 93.7332 164.247 95.6777 175.414 95.6777V98.7332H142.303V95.7888C149.414 95.7888 150.636 93.9555 150.636 86.1221V48.3999C150.636 40.1777 150.636 38.4555 143.303 41.511L142.081 38.6777L151.859 34.7333L160.192 31.2888L162.414 33.1221V44.8999H162.803C166.247 38.3999 172.247 31.5666 178.97 31.5666C183.247 31.5666 185.581 34.011 185.581 38.0666Z" fill="#141213"/>
<path d="M189.747 95.7888C196.858 95.7888 198.081 93.9555 198.081 86.1221V48.3999C198.081 40.1777 198.081 38.4555 190.747 41.511L189.525 38.6777L199.303 34.7333L207.636 31.2888L209.97 33.1221V44.3999H210.358C215.858 36.7888 221.414 31.511 229.747 31.511C238.081 31.511 243.247 37.7333 243.247 49.2888V86.0666C243.247 93.8999 244.358 95.7332 251.358 95.7332V98.6777H223.914V95.7332C230.414 95.7332 231.414 93.8999 231.414 86.0666V50.011C231.414 43.2888 228.858 40.0666 224.192 40.0666C219.192 40.0666 214.747 43.511 210.081 49.511V86.011C210.081 93.8443 211.081 95.6777 217.581 95.6777V98.6221H189.914V95.6777L189.747 95.7888Z" fill="#141213"/>
<path d="M300.636 72.5111C298.081 92.2333 289.747 100.678 278.192 100.678C264.358 100.678 255.636 87.5666 255.636 67.3444C255.636 47.1222 264.192 31.5666 278.803 31.5666C293.414 31.5666 299.858 45.0666 299.858 62.9555H267.525V63.1777C267.525 79.8444 272.692 91.6222 282.858 91.6222C288.358 91.6222 294.747 87.3444 297.692 72.5111H300.636ZM288.136 57.9C288.136 46.1222 286.025 36.6778 278.803 36.6778C271.581 36.6778 268.414 45.6222 267.636 57.9H288.136Z" fill="#141213"/>
<path d="M349.636 38.0666C349.636 42.8444 346.803 45.8999 343.636 45.8999C341.414 45.8999 340.47 45.0666 338.858 43.3444C337.247 41.7332 336.636 41.2888 335.192 41.2888C332.358 41.2888 329.081 45.3444 326.47 52.7888V85.3999C326.47 93.7332 328.303 95.6777 339.47 95.6777V98.7332H306.358V95.7888C313.47 95.7888 314.692 93.9555 314.692 86.1221V48.3999C314.692 40.1777 314.692 38.4555 307.358 41.511L306.136 38.6777L315.914 34.7333L324.247 31.2888L326.47 33.1221V44.8999H326.858C330.303 38.3999 336.303 31.5666 343.025 31.5666C347.303 31.5666 349.636 34.011 349.636 38.0666Z" fill="#141213"/>
</svg>
